<svg xmlns="http://www.w3.org/2000/svg" xmlns:xlink="http://www.w3.org/1999/xlink" viewBox="0 0 140.02 210.85"><defs><style>.cls-1{fill:#828282;}.cls-2{fill:#0a0a0a;stroke-miterlimit:10;stroke:url(#linear-gradient);}.cls-3,.cls-4,.cls-5{fill-rule:evenodd;}.cls-3{fill:url(#Degradado_sin_nombre_18);}.cls-4{fill:url(#Degradado_sin_nombre_18-2);}.cls-5{fill:url(#Degradado_sin_nombre_18-3);}.cls-6{fill:#c69c6d;}</style><linearGradient id="linear-gradient" x1="23.02" y1="215.97" x2="117.55" y2="-5.67" gradientUnits="userSpaceOnUse"><stop offset="0" stop-color="#e1e1e1"/><stop offset="0.12" stop-color="#ececec"/><stop offset="0.32" stop-color="#fafafa"/><stop offset="0.49" stop-color="#fff"/><stop offset="0.7" stop-color="#fcfcfc"/><stop offset="0.85" stop-color="#f2f2f2"/><stop offset="0.99" stop-color="#e2e2e2"/><stop offset="1" stop-color="#e1e1e1"/></linearGradient><linearGradient id="Degradado_sin_nombre_18" x1="6.79" y1="14.38" x2="18.34" y2="14.38" gradientUnits="userSpaceOnUse"><stop offset="0.02" stop-color="#ffebad"/><stop offset="1" stop-color="#c69c6d"/></linearGradient><linearGradient id="Degradado_sin_nombre_18-2" x1="116.84" y1="193.45" x2="128.39" y2="193.45" xlink:href="#Degradado_sin_nombre_18"/><linearGradient id="Degradado_sin_nombre_18-3" x1="42.43" y1="105.15" x2="98.14" y2="105.15" xlink:href="#Degradado_sin_nombre_18"/></defs><g id="Capa_2" data-name="Capa 2"><g id="Capa_1-2" data-name="Capa 1"><path class="cls-1" d="M138.15,200.41a10.46,10.46,0,0,1-10.48,10.44l-117.23-.2A10.46,10.46,0,0,1,0,200.17L.33,12A10.45,10.45,0,0,1,10.8,1.55L128,1.75a10.46,10.46,0,0,1,10.44,10.48Z"/><path class="cls-2" d="M139.19,199.36a10.45,10.45,0,0,1-10.47,10.44l-117.23-.2A10.46,10.46,0,0,1,1.05,199.12L1.38,10.94A10.45,10.45,0,0,1,11.85.5L129.08.7a10.46,10.46,0,0,1,10.44,10.48Z"/><path class="cls-3" d="M16.12,12.5a2.25,2.25,0,0,0-2.05,1.25,2,2,0,0,1-1.18.57,2.53,2.53,0,0,1,.67-1.49,2.24,2.24,0,1,0-1.94,0,2.59,2.59,0,0,1,.63,1.5,2,2,0,0,1-1.16-.6A2.25,2.25,0,1,0,9,16.9a2.45,2.45,0,0,0,2.13-1.33,1.89,1.89,0,0,1,1.18-.5,6.4,6.4,0,0,1-.1,1.72A9.72,9.72,0,0,1,10,20.16c.84-.7,4.23-.66,5,.07a9.38,9.38,0,0,1-2.17-3.43,8.08,8.08,0,0,1-.07-1.73,2,2,0,0,1,1.19.54A2.43,2.43,0,0,0,16.06,17a2.25,2.25,0,1,0,.06-4.5Z"/><path class="cls-4" d="M119.09,195.38a2.25,2.25,0,0,0,2-1.29,2,2,0,0,1,1.17-.58,2.51,2.51,0,0,1-.65,1.5,2.24,2.24,0,1,0,2,0,2.6,2.6,0,0,1-.65-1.49,2,2,0,0,1,1.17.58,2.25,2.25,0,1,0,2-3.23,2.44,2.44,0,0,0-2.11,1.37,1.89,1.89,0,0,1-1.18.52,7.11,7.11,0,0,1,.07-1.73,9.8,9.8,0,0,1,2.21-3.4c-.83.72-4.21.73-5.05,0A9.51,9.51,0,0,1,122.3,191a8.32,8.32,0,0,1,.1,1.73,1.9,1.9,0,0,1-1.2-.51,2.46,2.46,0,0,0-2.12-1.36,2.25,2.25,0,0,0,0,4.5Z"/><path class="cls-5" d="M87.28,95.9a10.85,10.85,0,0,0-9.79,6.17c-1.37,1.64-3.5,2.35-5.65,2.82.49-2.63,1.09-5.51,3.13-7.21a10.87,10.87,0,1,0-9.37,0c1.77,1.29,2.56,4.47,3.11,7.21-2.14-.47-4.26-1.18-5.63-2.82a10.86,10.86,0,1,0-9.79,15.55A11.83,11.83,0,0,0,63.48,111c1.51-1.67,3.45-2.07,5.68-2.5a31.28,31.28,0,0,1-.36,8.34c-2.2,6.31-7.74,13.84-10.71,16.4,4-3.47,20.36-3.47,24.39,0-3-2.56-8.91-10.49-10.71-16.4a40.45,40.45,0,0,1-.46-8.35c2.28.42,4.25.81,5.78,2.51a11.83,11.83,0,0,0,10.19,6.58,10.86,10.86,0,1,0,0-21.72Z"/><text/><path class="cls-6" d="M60.34,20.41a.22.22,0,0,0-.22-.18h-1.8c-.07,0-.12.06-.15.14l-.36,2.16a.39.39,0,0,0,.12.35l.54.45c.09.1.24.18.24.24s-.05.11-.17.11h-2.8c-.1,0-.15-.06-.15-.11s.1-.14.18-.2l.68-.55a.71.71,0,0,0,.19-.49L58.86,9.15A.18.18,0,0,1,59.05,9H60a.23.23,0,0,1,.22.21l2.31,13.16a.76.76,0,0,0,.27.53l.71.51c.07.06.14.12.14.18s-.05.11-.17.11h-3.5c-.13,0-.17-.06-.17-.11s.09-.12.17-.18l.65-.53a.39.39,0,0,0,.12-.39ZM60,19.19a.1.1,0,0,0,.1-.13l-.86-4.81h0l-.81,4.82a.09.09,0,0,0,.08.12Z"/><path class="cls-6" d="M21.89,11.4H23.4v9.94H21.89Zm.73,0h3.63v1.43H22.62Zm0,4.38h3.29V17.2H22.62Z"/><path class="cls-6" d="M28.21,21.15a2,2,0,0,1-.86-.83,2.74,2.74,0,0,1-.29-1.3V13.71a2.74,2.74,0,0,1,.29-1.3,2,2,0,0,1,.86-.83,3,3,0,0,1,1.35-.29,3,3,0,0,1,1.36.29,2,2,0,0,1,.86.83,2.74,2.74,0,0,1,.29,1.3V19a2.74,2.74,0,0,1-.29,1.3,2,2,0,0,1-.86.83,3,3,0,0,1-1.36.29A3,3,0,0,1,28.21,21.15Zm1.89-1.31a.79.79,0,0,0,.35-.35,1.35,1.35,0,0,0,.11-.55V13.79a1.31,1.31,0,0,0-.11-.55.79.79,0,0,0-.35-.35,1.13,1.13,0,0,0-.54-.12,1.19,1.19,0,0,0-.54.12.82.82,0,0,0-.34.35,1.31,1.31,0,0,0-.11.55v5.15a1.35,1.35,0,0,0,.11.55.82.82,0,0,0,.34.35,1.19,1.19,0,0,0,.54.12A1.13,1.13,0,0,0,30.1,19.84Z"/><path class="cls-6" d="M33.22,11.39h1.49v10H33.22Zm.69,4.31h1.81a1.07,1.07,0,0,0,.49-.1.69.69,0,0,0,.31-.3,1,1,0,0,0,.11-.48V13.76a1.12,1.12,0,0,0-.1-.5.78.78,0,0,0-.32-.33,1.07,1.07,0,0,0-.49-.11H33.91V11.39h1.7a3.31,3.31,0,0,1,1.37.26,2,2,0,0,1,.87.78,2.35,2.35,0,0,1,.3,1.22v1.16a2.46,2.46,0,0,1-.3,1.25,1.93,1.93,0,0,1-.87.8,3.19,3.19,0,0,1-1.37.27h-1.7Zm1.54,1.12,1.39-.31,1.59,4.83H36.8Z"/><path class="cls-6" d="M38.86,11.4h4.91v1.43H38.86Zm1.71.82h1.49v9.12H40.57Z"/><path class="cls-6" d="M45.35,21.16a1.89,1.89,0,0,1-.8-.83A2.91,2.91,0,0,1,44.28,19V11.4h1.51v7.67a1,1,0,0,0,.21.66.78.78,0,0,0,.6.23.81.81,0,0,0,.61-.23.92.92,0,0,0,.22-.66V11.4h1.5V19a2.79,2.79,0,0,1-.28,1.31,1.92,1.92,0,0,1-.79.83,2.72,2.72,0,0,1-1.26.28A2.65,2.65,0,0,1,45.35,21.16Z"/><path class="cls-6" d="M50,11.4h1.24l2.53,7.13-.2.22V11.4H55v9.93H53.7l-2.51-6.82.2-.22v7H50Z"/><path class="cls-6" d="M76,189a.21.21,0,0,0,.22.18H78c.07,0,.12-.06.14-.14l.37-2.16a.41.41,0,0,0-.12-.35l-.54-.45c-.1-.1-.24-.18-.24-.24s.05-.12.17-.12h2.8a.13.13,0,0,1,.14.12c0,.06-.09.14-.17.2l-.68.55a.67.67,0,0,0-.19.49l-2.22,13.18a.19.19,0,0,1-.19.17h-.9a.23.23,0,0,1-.22-.21L73.86,187a.76.76,0,0,0-.27-.53l-.71-.51c-.07-.06-.14-.12-.14-.18s.05-.12.17-.12h3.5c.12,0,.17.06.17.12s-.1.12-.17.18l-.66.53a.43.43,0,0,0-.12.39Zm.34,1.22a.09.09,0,0,0-.1.13l.85,4.81h0l.8-4.83c0-.08,0-.11-.07-.11Z"/><path class="cls-6" d="M113.22,197.18h-3.63v-1.43h3.63Zm0-4.38h-3.28v-1.42h3.28Zm.73,4.38h-1.51v-9.94H114Z"/><path class="cls-6" d="M107.63,187.42a2,2,0,0,1,.86.83,2.67,2.67,0,0,1,.3,1.31v5.3a2.67,2.67,0,0,1-.3,1.31,2,2,0,0,1-.86.83,2.93,2.93,0,0,1-1.35.28,3,3,0,0,1-1.36-.28,2,2,0,0,1-.85-.83,2.67,2.67,0,0,1-.3-1.31v-5.3a2.67,2.67,0,0,1,.3-1.31,2.06,2.06,0,0,1,.85-.83,3,3,0,0,1,1.36-.28A2.93,2.93,0,0,1,107.63,187.42Zm-1.89,1.32a.77.77,0,0,0-.34.35,1.18,1.18,0,0,0-.12.55v5.15a1.2,1.2,0,0,0,.12.55.77.77,0,0,0,.34.35,1.27,1.27,0,0,0,1.08,0,.82.82,0,0,0,.34-.35,1.2,1.2,0,0,0,.12-.55v-5.15a1.18,1.18,0,0,0-.12-.55.82.82,0,0,0-.34-.35,1.19,1.19,0,0,0-1.08,0Z"/><path class="cls-6" d="M100.39,191.75l-1.39.32-1.59-4.83H99Zm1.55,1.12h-1.82a1.07,1.07,0,0,0-.49.11.67.67,0,0,0-.31.29,1,1,0,0,0-.11.49v1.05a1,1,0,0,0,.11.51.76.76,0,0,0,.31.33,1.07,1.07,0,0,0,.49.11h1.82v1.43h-1.71a3.19,3.19,0,0,1-1.37-.27,1.87,1.87,0,0,1-.87-.77,2.37,2.37,0,0,1-.3-1.22v-1.16a2.5,2.5,0,0,1,.3-1.26,2,2,0,0,1,.88-.79,3.11,3.11,0,0,1,1.36-.28h1.71Zm.68,4.32h-1.48v-9.95h1.48Z"/><path class="cls-6" d="M97,197.18H92.07v-1.43H97Zm-1.71-.82H93.78v-9.12h1.49Z"/><path class="cls-6" d="M90.5,187.42a1.87,1.87,0,0,1,.79.83,2.91,2.91,0,0,1,.27,1.31v7.62h-1.5v-7.67a.89.89,0,0,0-.22-.66.78.78,0,0,0-.6-.23.82.82,0,0,0-.61.23.93.93,0,0,0-.21.66v7.67H86.91v-7.62a2.79,2.79,0,0,1,.28-1.31,1.89,1.89,0,0,1,.8-.83,2.54,2.54,0,0,1,1.25-.28A2.61,2.61,0,0,1,90.5,187.42Z"/><path class="cls-6" d="M85.85,197.18H84.62l-2.53-7.13.19-.22v7.35H80.89v-9.93h1.25l2.51,6.81-.2.23v-7h1.4Z"/></g></g></svg>