<svg xmlns="http://www.w3.org/2000/svg" xmlns:xlink="http://www.w3.org/1999/xlink" viewBox="0 0 139.52 210.35"><defs><style>.cls-1{fill:none;}.cls-2{fill:#0a0a0a;}.cls-3,.cls-4,.cls-5{fill-rule:evenodd;}.cls-3{fill:url(#Degradado_sin_nombre_18);}.cls-4{fill:url(#Degradado_sin_nombre_18-2);}.cls-5{fill:url(#Degradado_sin_nombre_18-3);}.cls-6{fill:url(#Degradado_sin_nombre_4);}.cls-7{fill:#c69c6d;}.cls-8{fill:url(#Degradado_sin_nombre_18-4);}</style><linearGradient id="Degradado_sin_nombre_18" x1="9.44" y1="15.42" x2="20.98" y2="15.42" gradientUnits="userSpaceOnUse"><stop offset="0.02" stop-color="#ffebad"/><stop offset="1" stop-color="#c69c6d"/></linearGradient><linearGradient id="Degradado_sin_nombre_18-2" x1="116.84" y1="192.95" x2="128.39" y2="192.95" xlink:href="#Degradado_sin_nombre_18"/><linearGradient id="Degradado_sin_nombre_18-3" x1="42.43" y1="96.88" x2="98.14" y2="96.88" xlink:href="#Degradado_sin_nombre_18"/><linearGradient id="Degradado_sin_nombre_4" x1="41.56" y1="37.83" x2="59.68" y2="37.83" gradientTransform="translate(0.82 -2.7) rotate(0.57)" xlink:href="#Degradado_sin_nombre_18"/><linearGradient id="Degradado_sin_nombre_18-4" x1="77.29" y1="172.45" x2="95.41" y2="172.45" xlink:href="#Degradado_sin_nombre_18"/></defs><g id="Capa_2" data-name="Capa 2"><g id="Capa_1-2" data-name="Capa 1"><path class="cls-1" d="M138.15,199.91a10.46,10.46,0,0,1-10.48,10.44l-117.23-.2A10.46,10.46,0,0,1,0,199.67L.33,11.49A10.45,10.45,0,0,1,10.8,1.05L128,1.25a10.46,10.46,0,0,1,10.44,10.48Z"/><path class="cls-2" d="M139.19,198.86a10.45,10.45,0,0,1-10.47,10.44l-117.23-.2A10.46,10.46,0,0,1,1.05,198.62L1.38,10.44A10.45,10.45,0,0,1,11.85,0L129.08.2a10.46,10.46,0,0,1,10.44,10.48Z"/><path class="cls-3" d="M18.76,13.53a2.25,2.25,0,0,0-2,1.25,2,2,0,0,1-1.18.57,2.47,2.47,0,0,1,.67-1.49,2.25,2.25,0,0,0-.92-4.29,2.25,2.25,0,0,0-1,4.27,2.59,2.59,0,0,1,.62,1.5,2,2,0,0,1-1.16-.6,2.25,2.25,0,1,0-2.07,3.2,2.47,2.47,0,0,0,2.13-1.34A1.92,1.92,0,0,1,15,16.1a6.53,6.53,0,0,1-.09,1.73,9.91,9.91,0,0,1-2.27,3.36c.84-.7,4.23-.66,5.05.07a9.69,9.69,0,0,1-2.17-3.42,8.19,8.19,0,0,1-.07-1.74,1.94,1.94,0,0,1,1.19.54A2.45,2.45,0,0,0,18.7,18a2.25,2.25,0,0,0,.06-4.5Z"/><path class="cls-4" d="M119.09,194.88a2.25,2.25,0,0,0,2-1.29,2,2,0,0,1,1.17-.58,2.51,2.51,0,0,1-.65,1.5,2.24,2.24,0,1,0,2,0,2.6,2.6,0,0,1-.65-1.49,2,2,0,0,1,1.17.58,2.25,2.25,0,1,0,2-3.23,2.44,2.44,0,0,0-2.11,1.37,1.89,1.89,0,0,1-1.18.52,7.11,7.11,0,0,1,.07-1.73,9.8,9.8,0,0,1,2.21-3.4c-.83.72-4.21.73-5.05,0a9.51,9.51,0,0,1,2.23,3.39,8.32,8.32,0,0,1,.1,1.73,1.9,1.9,0,0,1-1.2-.51,2.46,2.46,0,0,0-2.12-1.36,2.25,2.25,0,0,0,0,4.5Z"/><path class="cls-5" d="M87.28,87.63a10.85,10.85,0,0,0-9.79,6.17c-1.37,1.64-3.5,2.35-5.65,2.82.49-2.63,1.09-5.5,3.13-7.21a10.87,10.87,0,1,0-9.37,0c1.77,1.29,2.56,4.47,3.11,7.21-2.14-.47-4.26-1.18-5.63-2.82a10.86,10.86,0,1,0-9.79,15.55,11.83,11.83,0,0,0,10.19-6.58c1.51-1.67,3.45-2.07,5.68-2.49a31.2,31.2,0,0,1-.36,8.33c-2.2,6.31-7.74,13.85-10.71,16.4,4-3.47,20.36-3.47,24.39,0-3-2.55-8.91-10.49-10.71-16.4a40.42,40.42,0,0,1-.46-8.35c2.28.43,4.25.81,5.78,2.51a11.83,11.83,0,0,0,10.19,6.58,10.86,10.86,0,1,0,0-21.72Z"/><path class="cls-6" d="M52.65,44.88a.48.48,0,0,0-.49-.4l-4.07,0c-.17,0-.28.13-.34.31l-.87,4.87a.86.86,0,0,0,.27.8l1.2,1c.22.23.54.41.54.54s-.11.27-.39.27l-6.33-.07c-.22,0-.33-.13-.33-.27s.23-.31.39-.44l1.56-1.22a1.65,1.65,0,0,0,.45-1.11l5.31-29.78c.06-.22.17-.39.44-.39l2,0a.53.53,0,0,1,.49.49l4.94,29.84a1.68,1.68,0,0,0,.59,1.2l1.59,1.17c.16.14.33.27.32.4s-.11.27-.38.27l-7.94-.08c-.27,0-.38-.14-.38-.27s.22-.27.39-.4l1.5-1.18a.93.93,0,0,0,.28-.89Zm-.74-2.76a.21.21,0,0,0,.22-.3l-1.82-10.9H50.2l-1.92,10.9c-.06.18,0,.27.16.27Z"/><path class="cls-7" d="M10.44,24.74h1.5v9.94h-1.5Zm.72,0h3.63v1.43H11.16Zm0,4.39h3.29v1.42H11.16Z"/><path class="cls-7" d="M16.75,34.5a2,2,0,0,1-.85-.83,2.63,2.63,0,0,1-.3-1.3V27.06a2.67,2.67,0,0,1,.3-1.31,2,2,0,0,1,.85-.83,3.14,3.14,0,0,1,1.36-.28,3.06,3.06,0,0,1,1.35.28,2,2,0,0,1,.86.83,2.67,2.67,0,0,1,.3,1.31v5.31a2.63,2.63,0,0,1-.3,1.3,2,2,0,0,1-.86.83,2.93,2.93,0,0,1-1.35.29A3,3,0,0,1,16.75,34.5Zm1.9-1.31a.84.84,0,0,0,.34-.36,1.15,1.15,0,0,0,.12-.55V27.14a1.15,1.15,0,0,0-.12-.55.77.77,0,0,0-.34-.35,1.28,1.28,0,0,0-1.08,0,.72.72,0,0,0-.34.35,1.15,1.15,0,0,0-.12.55v5.14a1.15,1.15,0,0,0,.12.55.79.79,0,0,0,.34.36,1.27,1.27,0,0,0,1.08,0Z"/><path class="cls-7" d="M21.76,24.74h1.49v9.94H21.76Zm.69,4.31h1.82a1.06,1.06,0,0,0,.48-.1.69.69,0,0,0,.31-.3,1.13,1.13,0,0,0,.12-.48V27.11a1.13,1.13,0,0,0-.11-.51.74.74,0,0,0-.31-.32,1,1,0,0,0-.49-.11H22.45V24.74h1.71a3.11,3.11,0,0,1,1.36.26,1.93,1.93,0,0,1,.87.77,2.37,2.37,0,0,1,.3,1.22v1.16a2.5,2.5,0,0,1-.3,1.26,2,2,0,0,1-.87.8,3.14,3.14,0,0,1-1.36.27H22.45ZM24,30.17l1.39-.31L27,34.68H25.35Z"/><path class="cls-7" d="M27.4,24.74h4.91v1.43H27.4Zm1.71.82H30.6v9.12H29.11Z"/><path class="cls-7" d="M33.89,34.5a1.89,1.89,0,0,1-.8-.83,2.87,2.87,0,0,1-.27-1.3V24.74h1.51v7.67a.93.93,0,0,0,.21.66.75.75,0,0,0,.6.23.76.76,0,0,0,.61-.23.89.89,0,0,0,.22-.66V24.74h1.5v7.63a2.87,2.87,0,0,1-.27,1.3,1.89,1.89,0,0,1-.8.83,2.61,2.61,0,0,1-1.26.29A2.57,2.57,0,0,1,33.89,34.5Z"/><path class="cls-7" d="M38.53,24.74h1.24l2.53,7.13-.2.22V24.74h1.4v9.94H42.24l-2.5-6.82.19-.22v7h-1.4Z"/><path class="cls-7" d="M127,182.49h-3.63v-1.43H127Zm0-4.38h-3.29v-1.42H127Zm.72,4.38h-1.5v-9.94h1.5Z"/><path class="cls-7" d="M121.42,172.74a2,2,0,0,1,.86.83,2.6,2.6,0,0,1,.3,1.3v5.31a2.7,2.7,0,0,1-.3,1.31,2,2,0,0,1-.86.82,3.29,3.29,0,0,1-2.7,0,2,2,0,0,1-.86-.82,2.7,2.7,0,0,1-.3-1.31v-5.31a2.6,2.6,0,0,1,.3-1.3,2,2,0,0,1,.86-.83,3.29,3.29,0,0,1,2.7,0Zm-1.89,1.31a.82.82,0,0,0-.34.35,1.2,1.2,0,0,0-.12.55v5.15a1.15,1.15,0,0,0,.12.55.82.82,0,0,0,.34.35,1.28,1.28,0,0,0,1.08,0,.77.77,0,0,0,.34-.35,1.15,1.15,0,0,0,.12-.55V175a1.2,1.2,0,0,0-.12-.55.77.77,0,0,0-.34-.35,1.28,1.28,0,0,0-1.08,0Z"/><path class="cls-7" d="M114.19,177.07l-1.39.31-1.59-4.83h1.62Zm1.54,1.12h-1.82a1,1,0,0,0-.48.1.69.69,0,0,0-.31.3,1.13,1.13,0,0,0-.12.48v1.06a1.12,1.12,0,0,0,.11.5.76.76,0,0,0,.31.33,1.1,1.1,0,0,0,.49.11h1.82v1.43H114a3.35,3.35,0,0,1-1.37-.26,2,2,0,0,1-.86-.78,2.35,2.35,0,0,1-.3-1.22v-1.16a2.46,2.46,0,0,1,.3-1.25,1.93,1.93,0,0,1,.87-.8,3.14,3.14,0,0,1,1.36-.27h1.71Zm.68,4.31h-1.48v-9.95h1.48Z"/><path class="cls-7" d="M110.77,182.49h-4.9v-1.43h4.9Zm-1.7-.82h-1.49v-9.12h1.49Z"/><path class="cls-7" d="M104.29,172.74a1.79,1.79,0,0,1,.79.82,2.91,2.91,0,0,1,.27,1.31v7.62h-1.5v-7.67a1,1,0,0,0-.21-.66.78.78,0,0,0-.6-.23.83.83,0,0,0-.62.23,1,1,0,0,0-.21.66v7.67h-1.5v-7.62a2.91,2.91,0,0,1,.27-1.31,1.87,1.87,0,0,1,.8-.82,2.55,2.55,0,0,1,1.26-.29A2.59,2.59,0,0,1,104.29,172.74Z"/><path class="cls-7" d="M99.65,182.49H98.41l-2.53-7.13.2-.22v7.35h-1.4v-9.93h1.25l2.51,6.82-.2.22v-7h1.41Z"/><path class="cls-7" d="M10.08,36.89h1.5v9.94h-1.5Zm1,8.51H12.6a.69.69,0,0,0,.54-.21.89.89,0,0,0,.19-.59V39.12a.9.9,0,0,0-.19-.6.72.72,0,0,0-.54-.2H11.06V36.89h1.61a2.47,2.47,0,0,1,1.17.25,1.71,1.71,0,0,1,.74.74A2.45,2.45,0,0,1,14.84,39v5.63a2.52,2.52,0,0,1-.26,1.17,1.71,1.71,0,0,1-.75.73,2.47,2.47,0,0,1-1.17.26h-1.6Z"/><path class="cls-7" d="M17,46.64a2,2,0,0,1-.86-.82,2.67,2.67,0,0,1-.3-1.31V39.2a2.63,2.63,0,0,1,.3-1.3,1.92,1.92,0,0,1,.86-.83,3.29,3.29,0,0,1,2.7,0,1.92,1.92,0,0,1,.86.83,2.63,2.63,0,0,1,.3,1.3v5.31a2.67,2.67,0,0,1-.3,1.31,2,2,0,0,1-.86.82,3.29,3.29,0,0,1-2.7,0Zm1.89-1.31a.82.82,0,0,0,.34-.35,1.2,1.2,0,0,0,.12-.55V39.28a1.18,1.18,0,0,0-.12-.55.82.82,0,0,0-.34-.35,1.27,1.27,0,0,0-1.08,0,.77.77,0,0,0-.34.35,1.18,1.18,0,0,0-.12.55v5.15a1.2,1.2,0,0,0,.12.55.77.77,0,0,0,.34.35,1.27,1.27,0,0,0,1.08,0Z"/><path class="cls-7" d="M22,36.88H23.5v9.95H22Zm.68,4.31h1.82a1,1,0,0,0,.48-.1.69.69,0,0,0,.31-.3,1.13,1.13,0,0,0,.12-.48V39.25a1.12,1.12,0,0,0-.11-.5.76.76,0,0,0-.31-.33,1.1,1.1,0,0,0-.49-.11H22.7V36.88h1.71a3.35,3.35,0,0,1,1.37.26,2,2,0,0,1,.86.78,2.35,2.35,0,0,1,.3,1.22V40.3a2.46,2.46,0,0,1-.3,1.25,1.93,1.93,0,0,1-.87.8,3.14,3.14,0,0,1-1.36.27H22.7Zm1.54,1.13L25.63,42l1.59,4.83H25.6Z"/><path class="cls-7" d="M29.86,36.89h1.19l2.33,9.94H31.85l-1.4-7.22-1.39,7.22H27.52Zm-.8,6.68h2.83V45H29.06Z"/><path class="cls-7" d="M34.19,36.89h1.5v9.94h-1.5Zm1,8.51h1.54a.69.69,0,0,0,.54-.21.84.84,0,0,0,.19-.59V39.12a.85.85,0,0,0-.19-.6.72.72,0,0,0-.54-.2H35.17V36.89h1.61a2.47,2.47,0,0,1,1.17.25,1.71,1.71,0,0,1,.74.74A2.45,2.45,0,0,1,39,39v5.63a2.52,2.52,0,0,1-.26,1.17,1.66,1.66,0,0,1-.75.73,2.47,2.47,0,0,1-1.17.26h-1.6Z"/><path class="cls-7" d="M126.75,161.34l-1.55,0a.66.66,0,0,0-.53.21.81.81,0,0,0-.2.59l0,5.48a.89.89,0,0,0,.18.59.7.7,0,0,0,.53.22h1.55l0,1.43-1.61,0a2.45,2.45,0,0,1-1.16-.26,1.71,1.71,0,0,1-.74-.74,2.4,2.4,0,0,1-.24-1.17l0-5.63a2.55,2.55,0,0,1,.27-1.16,1.68,1.68,0,0,1,.76-.73,2.47,2.47,0,0,1,1.17-.25l1.6,0Zm.89,8.52-1.5,0,.1-9.93h1.5Z"/><path class="cls-7" d="M120.82,160a1.92,1.92,0,0,1,.84.83,2.67,2.67,0,0,1,.29,1.31l0,5.3a2.79,2.79,0,0,1-.31,1.31,2,2,0,0,1-.87.82,3.14,3.14,0,0,1-1.36.27,3.06,3.06,0,0,1-1.35-.3,2,2,0,0,1-.85-.83,2.74,2.74,0,0,1-.28-1.32l.05-5.3a2.71,2.71,0,0,1,.31-1.3,2,2,0,0,1,.87-.82,2.83,2.83,0,0,1,1.35-.27A2.87,2.87,0,0,1,120.82,160Zm-1.91,1.29a.84.84,0,0,0-.35.35,1.15,1.15,0,0,0-.12.55l0,5.14a1.15,1.15,0,0,0,.11.55.79.79,0,0,0,.34.36,1.33,1.33,0,0,0,1.08,0,.77.77,0,0,0,.34-.35,1.27,1.27,0,0,0,.13-.55l0-5.14a1.28,1.28,0,0,0-.11-.55.79.79,0,0,0-.34-.36,1.23,1.23,0,0,0-1.08,0Z"/><path class="cls-7" d="M113.53,164.29l-1.39.3-1.54-4.84,1.62,0Zm1.54,1.14-1.82,0a1.07,1.07,0,0,0-.49.1.63.63,0,0,0-.31.29,1.13,1.13,0,0,0-.12.48v1.06a1.13,1.13,0,0,0,.1.51.76.76,0,0,0,.31.33,1.07,1.07,0,0,0,.49.11l1.82,0,0,1.43-1.7,0a3.16,3.16,0,0,1-1.37-.27,1.89,1.89,0,0,1-.86-.79,2.35,2.35,0,0,1-.29-1.22v-1.16a2.44,2.44,0,0,1,.32-1.25,1.89,1.89,0,0,1,.88-.79,3.14,3.14,0,0,1,1.36-.26l1.71,0Zm.64,4.32-1.49,0,.1-9.94h1.49Z"/><path class="cls-7" d="M107.87,169.66h-1.19l-2.24-10H106l1.32,7.23,1.47-7.2,1.53,0Zm.86-6.67-2.83,0v-1.4l2.83,0Z"/><path class="cls-7" d="M102.64,161.1l-1.54,0a.67.67,0,0,0-.54.21.85.85,0,0,0-.2.59l0,5.48a.89.89,0,0,0,.18.59.67.67,0,0,0,.54.21l1.54,0v1.43l-1.62,0a2.45,2.45,0,0,1-1.16-.26,1.71,1.71,0,0,1-.74-.74,2.4,2.4,0,0,1-.24-1.17l0-5.63a2.55,2.55,0,0,1,.27-1.16,1.68,1.68,0,0,1,.76-.73,2.47,2.47,0,0,1,1.17-.25l1.6,0Zm.89,8.52-1.5,0,.1-9.94,1.5,0Z"/><path class="cls-8" d="M84.6,163.24a.49.49,0,0,0,.49.4l4.08.05a.38.38,0,0,0,.33-.31l.88-4.88a.9.9,0,0,0-.27-.8l-1.2-1c-.22-.22-.55-.41-.55-.54s.11-.26.39-.26l6.33.06c.23,0,.33.14.33.27s-.22.31-.39.44l-1.55,1.23A1.52,1.52,0,0,0,93,159l-5.31,29.78c-.06.22-.17.4-.45.39l-2,0c-.28,0-.44-.22-.5-.49L79.8,158.8a1.65,1.65,0,0,0-.6-1.21l-1.58-1.17c-.17-.13-.33-.27-.33-.4s.11-.26.39-.26l7.93.08c.28,0,.39.13.38.27s-.22.26-.39.39l-1.49,1.19a.9.9,0,0,0-.29.88Zm.74,2.76a.23.23,0,0,0-.22.31l1.82,10.89h.11L89,166.3a.19.19,0,0,0-.17-.27Z"/></g></g></svg>